# File created by Blade
# Date/Time:  Wed Apr 08 17:00:23 2015
#---------------------------------------------------------
:version 1.10
:name HOM
:units
  mass 1.0
  length 1.000000
  angle deg
:documentation
     Acclaim Skeleton File
:root
   axis xyz
   order TX TY TZ RX RY RZ
   position 0.000000 0.000000 0.000000
   orientation 0 0 0
:bonedata
   begin
      id 1
      name Spine_dum
      direction 0.000000 1.000000 0.000000
      length 5.893853
      axis 0.0 0.0 0.0 xyz
   end
   begin
      id 2
      name LeftUpLeg_dum
      direction 1.000000 0.000000 0.000000
      length 3.697939
      axis 0.0 0.0 0.0 xyz
   end
   begin
      id 3
      name RightUpLeg_dum
      direction -1.000000 0.000000 0.000000
      length 3.697939
      axis 0.0 0.0 0.0 xyz
   end
   begin
      id 4
      name Spine
      direction 0.000000 1.000000 0.000000
      length 0.000000
      axis 0.0 0.0 0.0 xyz
      dof rx ry rz
   end
   begin
      id 5
      name Spine_dum1
      direction 0.000000 1.000000 0.000000
      length 16.447146
      axis 0.0 0.0 0.0 xyz
   end
   begin
      id 6
      name Spine_dum2
      direction 0.000000 1.000000 0.000000
      length 10.900383
      axis 0.0 0.0 0.0 xyz
   end
   begin
      id 7
      name Spine_dum3
      direction 0.000000 1.000000 0.000000
      length 10.900383
      axis 0.0 0.0 0.0 xyz
   end
   begin
      id 8
      name Head
      direction 0.000000 1.000000 0.000000
      length 4.527550
      axis 0.0 0.0 0.0 xyz
      dof rx ry rz
   end
   begin
      id 9
      name LeftShoulder
      direction 1.000000 0.000000 0.000000
      length 8.219464
      axis 0.0 0.0 -90.0 xyz
      dof rx ry rz
   end
   begin
      id 10
      name LeftArm
      direction 1.000000 0.000000 0.000000
      length 11.094937
      axis 0.0 0.0 -90.0 xyz
      dof rx ry rz
   end
   begin
      id 11
      name LeftForeArm
      direction 1.000000 0.000000 0.000000
      length 9.103875
      axis 0.0 0.0 -90.0 xyz
      dof ry rz rx
   end
   begin
      id 12
      name LeftHand
      direction 0.000000 0.000000 0.000000
      length 0.000000
      axis 0.0 0.0 -90.0 xyz
      dof rx ry rz
   end
   begin
      id 13
      name LeftHand_dum1
      direction 0.000000 0.000000 0.000000
      length 0.000000
      axis 0.0 0.0 -90.0 xyz
   end
   begin
      id 14
      name LeftHand_dum2
      direction 1.000000 0.000000 0.000000
      length 3.937000
      axis 0.0 0.0 -90.0 xyz
   end
   begin
      id 15
      name LeftHandThumb1
      direction 0.000000 0.000000 1.000000
      length 3.937000
      axis 0.0 0.0 -90.0 xyz
      dof rx rz ry
   end
   begin
      id 16
      name RightShoulder
      direction -1.000000 0.000000 0.000000
      length 8.219464
      axis 0.0 0.0 90.0 xyz
      dof rx ry rz
   end
   begin
      id 17
      name RightArm
      direction -1.000000 0.000000 0.000000
      length 11.094937
      axis 0.0 0.0 90.0 xyz
      dof rx ry rz
   end
   begin
      id 18
      name RightForeArm
      direction -1.000000 0.000000 0.000000
      length 9.103875
      axis 0.0 0.0 90.0 xyz
      dof ry rz rx
   end
   begin
      id 19
      name RightHand
      direction 0.000000 0.000000 0.000000
      length 0.000000
      axis 0.0 0.0 90.0 xyz
      dof rx ry rz
   end
   begin
      id 20
      name RightHand_dum1
      direction 0.000000 0.000000 0.000000
      length 0.000000
      axis 0.0 0.0 90.0 xyz
   end
   begin
      id 21
      name RightHand_dum2
      direction -1.000000 0.000000 0.000000
      length 3.937000
      axis 0.0 0.0 90.0 xyz
   end
   begin
      id 22
      name RightHandThumb1
      direction 0.000000 0.000000 1.000000
      length 3.937000
      axis 0.0 0.0 90.0 xyz
      dof rx rz ry
   end
   begin
      id 23
      name LeftUpLeg
      direction 0.000000 -1.000000 0.000000
      length 16.181467
      axis 0.0 0.0 0.0 xyz
      dof rx ry rz
   end
   begin
      id 24
      name LeftLeg
      direction 0.000000 -1.000000 0.000000
      length 16.501392
      axis 0.0 0.0 0.0 xyz
      dof rx ry rz
   end
   begin
      id 25
      name LeftFoot
      direction 0.000000 -0.258819 0.965926
      length 6.408245
      axis 15.0 0.0 0.0 xyz
      dof rx ry rz
   end
   begin
      id 26
      name LeftToeBase
      direction 0.000000 0.000000 1.000000
      length 2.952750
      axis 0.0 0.0 0.0 xyz
      dof rx ry rz
   end
   begin
      id 27
      name RightUpLeg
      direction 0.000000 -1.000000 0.000000
      length 16.181467
      axis 0.0 0.0 0.0 xyz
      dof rx ry rz
   end
   begin
      id 28
      name RightLeg
      direction 0.000000 -1.000000 0.000000
      length 16.501392
      axis 0.0 0.0 0.0 xyz
      dof rx ry rz
   end
   begin
      id 29
      name RightFoot
      direction 0.000000 -0.258819 0.965926
      length 6.408245
      axis 15.0 0.0 0.0 xyz
      dof rx ry rz
   end
   begin
      id 30
      name RightToeBase
      direction 0.000000 0.000000 1.000000
      length 2.952750
      axis 0.0 0.0 0.0 xyz
      dof rx ry rz
   end
:hierarchy
   begin
      root Spine_dum LeftUpLeg_dum RightUpLeg_dum
      Spine_dum Spine
      LeftUpLeg_dum LeftUpLeg
      RightUpLeg_dum RightUpLeg
      Spine Spine_dum1 Spine_dum2 Spine_dum3
      Spine_dum1 Head
      Spine_dum2 LeftShoulder
      Spine_dum3 RightShoulder
      LeftShoulder LeftArm
      LeftArm LeftForeArm
      LeftForeArm LeftHand
      LeftHand LeftHand_dum1 LeftHand_dum2
      LeftHand_dum1 LeftHandThumb1
      RightShoulder RightArm
      RightArm RightForeArm
      RightForeArm RightHand
      RightHand RightHand_dum1 RightHand_dum2
      RightHand_dum1 RightHandThumb1
      LeftUpLeg LeftLeg
      LeftLeg LeftFoot
      LeftFoot LeftToeBase
      RightUpLeg RightLeg
      RightLeg RightFoot
      RightFoot RightToeBase
   end

# File created by Blade
# Date/Time:  Wed Apr 08 17:00:17 2015
# Frame Rate: 120.000 fps
#------------------------------------------------------
:FULLY-SPECIFIED
:DEGREES
155
root 2.214346 35.899625 2.519915 -40.102369 -85.782266 31.609973
Spine 11.207147 3.213425 -4.851642
Head -11.165995 -6.689625 4.034005
LeftShoulder 8.541444 -4.954809 33.461459
LeftArm 88.540095 42.422842 -48.455616
LeftForeArm -55.311291 0.000000 87.983580
LeftHand -13.988213 0.000000 -5.639835
LeftHandThumb1 -26.253704 0.000000 33.147579
RightShoulder 3.551025 -24.849897 -28.451572
RightArm 97.518372 28.628848 69.629207
RightForeArm -5.443771 -0.000000 35.877570
RightHand 9.337273 -0.000000 -18.779492
RightHandThumb1 -24.326973 -0.000000 -32.862282
LeftUpLeg 11.202301 10.986208 6.014100
LeftLeg 8.805642 -0.000000 -0.000000
LeftFoot -11.704013 1.795304 -10.588965
LeftToeBase 8.846920 -0.000000 -0.000000
RightUpLeg 13.941265 -9.651489 -12.162327
RightLeg 3.409891 -0.000000 -0.000000
RightFoot -11.362962 1.529037 19.191540
RightToeBase 14.326099 -0.000000 -0.000000
156
root 2.199391 35.898755 2.523382 -39.267372 -85.658443 30.755531
Spine 11.182231 3.137491 -4.929459
Head -11.391674 -6.438053 3.941327
LeftShoulder 8.588236 -4.983742 33.438765
LeftArm 88.648086 42.492060 -48.534182
LeftForeArm -55.448125 -0.000000 88.218681
LeftHand -13.983707 0.000000 -4.923295
LeftHandThumb1 -26.253704 0.000000 33.147579
RightShoulder 3.572287 -24.841533 -28.544299
RightArm 97.439275 28.794039 68.846781
RightForeArm -6.511644 -0.000000 35.396433
RightHand 9.645353 -0.000000 -19.502887
RightHandThumb1 -24.326973 -0.000000 -32.862282
LeftUpLeg 11.201140 10.897467 5.997622
LeftLeg 8.836801 -0.000000 -0.000000
LeftFoot -11.689958 1.719811 -10.624341
LeftToeBase 8.747768 -0.000000 -0.000000
RightUpLeg 14.059245 -9.753044 -12.202707
RightLeg 3.348838 -0.000000 -0.000000
RightFoot -11.373801 1.489994 19.156374
RightToeBase 14.300434 -0.000000 -0.000000
157
root 2.183952 35.897487 2.526788 -38.488643 -85.540718 29.952848
Spine 11.153016 3.077865 -5.003352
Head -11.603656 -6.202548 3.853307
LeftShoulder 8.653770 -5.039038 33.426447
LeftArm 88.673967 42.582615 -48.697114
LeftForeArm -55.588526 0.000000 88.435085
LeftHand -14.039490 -0.000000 -4.150563
LeftHandThumb1 -26.253704 0.000000 33.147579
RightShoulder 3.628857 -24.835642 -28.640660
RightArm 97.269601 29.036178 67.936374
RightForeArm -7.581079 0.000000 34.919658
RightHand 9.904233 -0.000000 -20.122186
RightHandThumb1 -24.326973 -0.000000 -32.862282
LeftUpLeg 11.205106 10.808628 5.982308
LeftLeg 8.871772 -0.000000 -0.000000
LeftFoot -11.704029 1.687740 -10.598420
LeftToeBase 8.718635 -0.000000 -0.000000
RightUpLeg 14.180654 -9.849915 -12.241919
RightLeg 3.287661 -0.000000 -0.000000
RightFoot -11.382264 1.468192 19.181409
RightToeBase 14.283556 -0.000000 -0.000000
158
root 2.170770 35.896381 2.530800 -37.914750 -85.438395 29.359256
Spine 11.123239 3.026966 -5.078005
Head -11.809958 -5.953449 3.760371
LeftShoulder 8.713690 -5.093059 33.430719
LeftArm 88.646360 42.665041 -48.897465
LeftForeArm -55.859862 0.000000 88.674852
LeftHand -14.011597 0.000000 -3.400508
LeftHandThumb1 -26.253704 0.000000 33.147579
RightShoulder 3.711129 -24.842127 -28.745800
RightArm 97.133757 29.280550 67.042864
RightForeArm -8.605085 0.000000 34.426562
RightHand 10.079166 -0.000000 -20.686105
RightHandThumb1 -24.326973 -0.000000 -32.862282
LeftUpLeg 11.206640 10.748588 5.967935
LeftLeg 8.905879 -0.000000 -0.000000
LeftFoot -11.715160 1.632020 -10.580443
LeftToeBase 8.731642 -0.000000 -0.000000
RightUpLeg 14.275810 -9.928632 -12.281082
RightLeg 3.250643 -0.000000 -0.000000
RightFoot -11.393123 1.449227 19.189567
RightToeBase 14.285525 -0.000000 -0.000000
159
root 2.158028 35.895369 2.535638 -37.532892 -85.343310 28.958546
Spine 11.096757 2.977501 -5.154940
Head -12.030480 -5.734367 3.665086
LeftShoulder 8.774659 -5.159931 33.410377
LeftArm 88.507507 42.759292 -49.181023
LeftForeArm -56.049952 -0.000000 88.967290
LeftHand -14.164560 0.000000 -2.616437
LeftHandThumb1 -26.253704 0.000000 33.147579
RightShoulder 3.793204 -24.833153 -28.854416
RightArm 96.844294 29.606711 65.879386
RightForeArm -9.426278 -0.000000 33.956107
RightHand 10.183009 -0.000000 -21.056702
RightHandThumb1 -24.326973 -0.000000 -32.862282
LeftUpLeg 11.214943 10.708190 5.946112
LeftLeg 8.931635 -0.000000 -0.000000
LeftFoot -11.722451 1.586565 -10.547880
LeftToeBase 8.707836 -0.000000 -0.000000
RightUpLeg 14.358000 -9.966727 -12.319602
RightLeg 3.227341 -0.000000 -0.000000
RightFoot -11.426176 1.411376 19.200910
RightToeBase 14.281643 -0.000000 -0.000000
160
root 2.145263 35.894573 2.540294 -37.082454 -85.247163 28.493624
Spine 11.063442 2.922750 -5.228539
Head -12.250539 -5.524835 3.578326
LeftShoulder 8.838470 -5.260172 33.380830
LeftArm 88.305697 42.882965 -49.504505
LeftForeArm -56.108972 -0.000000 89.292331
LeftHand -14.309531 0.000000 -1.824229
LeftHandThumb1 -26.253704 0.000000 33.147579
RightShoulder 3.895134 -24.828601 -28.961730
RightArm 96.550763 29.921226 64.744581
RightForeArm -10.216090 -0.000000 33.500834
RightHand 10.320220 -0.000000 -21.441165
RightHandThumb1 -24.326973 -0.000000 -32.862282
LeftUpLeg 11.211046 10.670201 5.930985
LeftLeg 8.971724 -0.000000 -0.000000
LeftFoot -11.726585 1.526884 -10.537516
LeftToeBase 8.676701 -0.000000 -0.000000
RightUpLeg 14.433709 -10.026500 -12.354971
RightLeg 3.210666 -0.000000 -0.000000
RightFoot -11.454141 1.369759 19.190347
RightToeBase 14.278228 -0.000000 -0.000000
161
root 2.132980 35.893466 2.544726 -36.712889 -85.162848 28.112553
Spine 11.024754 2.904426 -5.305973
Head -12.462555 -5.367847 3.521718
LeftShoulder 8.882312 -5.302521 33.399871
LeftArm 88.214980 42.942639 -49.776579
LeftForeArm -56.418118 -0.000000 89.499948
LeftHand -14.271627 -0.000000 -1.315849
LeftHandThumb1 -26.253704 0.000000 33.147579
RightShoulder 3.969649 -24.836030 -29.034881
RightArm 96.238786 30.215867 63.614295
RightForeArm -10.969069 -0.000000 33.069032
RightHand 10.479756 -0.000000 -21.699148
RightHandThumb1 -24.326973 -0.000000 -32.862282
LeftUpLeg 11.213302 10.633998 5.914511
LeftLeg 8.994017 -0.000000 -0.000000
LeftFoot -11.732101 1.488872 -10.509469
LeftToeBase 8.669531 -0.000000 -0.000000
RightUpLeg 14.501035 -10.075661 -12.389312
RightLeg 3.196753 -0.000000 -0.000000
RightFoot -11.479528 1.357629 19.219280
RightToeBase 14.272632 -0.000000 -0.000000
162
root 2.121134 35.892582 2.549803 -36.368488 -85.091045 27.765618
Spine 10.977522 2.886092 -5.366486
Head -12.700348 -5.178331 3.437462
LeftShoulder 8.921355 -5.328971 33.379831
LeftArm 88.044134 43.009266 -50.137962
LeftForeArm -56.682566 -0.000000 89.726301
LeftHand -14.421316 -0.000000 -0.923345
LeftHandThumb1 -26.253704 0.000000 33.147579
RightShoulder 4.050150 -24.862899 -29.137446
RightArm 95.918666 30.512250 62.471615
RightForeArm -11.657013 -0.000000 32.647064
RightHand 10.721352 -0.000000 -21.825731
RightHandThumb1 -24.326973 -0.000000 -32.862282
LeftUpLeg 11.209840 10.605667 5.903708
LeftLeg 9.017965 -0.000000 -0.000000
LeftFoot -11.759101 1.461342 -10.459171
LeftToeBase 8.738607 -0.000000 -0.000000
RightUpLeg 14.540477 -10.141262 -12.420685
RightLeg 3.211738 -0.000000 -0.000000
RightFoot -11.507044 1.351395 19.219512
RightToeBase 14.280097 -0.000000 -0.000000
163
root 2.109603 35.891785 2.554143 -36.134538 -85.025192 27.513069
Spine 10.948726 2.899340 -5.435199
Head -12.910519 -5.041783 3.383584
LeftShoulder 8.981201 -5.356271 33.360715
LeftArm 87.847965 43.062776 -50.512397
LeftForeArm -56.908053 -0.000000 89.951899
LeftHand -14.591107 -0.000000 -0.554017
LeftHandThumb1 -26.253704 0.000000 33.147579
RightShoulder 4.108546 -24.888313 -29.196839
RightArm 95.544061 30.800375 61.274626
RightForeArm -12.388233 -0.000000 32.272396
RightHand 10.968467 -0.000000 -22.096252
RightHandThumb1 -24.326973 -0.000000 -32.862282
LeftUpLeg 11.217793 10.587131 5.895594
LeftLeg 9.052181 -0.000000 -0.000000
LeftFoot -11.773182 1.417671 -10.437115
LeftToeBase 8.740062 -0.000000 -0.000000
RightUpLeg 14.589551 -10.175994 -12.450376
RightLeg 3.229939 -0.000000 -0.000000
RightFoot -11.541118 1.331395 19.219873
RightToeBase 14.274493 -0.000000 -0.000000
164
root 2.098326 35.891134 2.558497 -36.000426 -84.976471 27.356551
Spine 10.926330 2.924603 -5.499225
Head -13.130758 -4.913752 3.328376
LeftShoulder 9.029354 -5.405052 33.310372
LeftArm 87.687100 43.127392 -50.836699
LeftForeArm -57.054881 -0.000000 90.097712
LeftHand -14.744202 0.000000 -0.267363
LeftHandThumb1 -26.253704 0.000000 33.147579
RightShoulder 4.154133 -24.911091 -29.270838
RightArm 95.220312 31.045758 60.179029
RightForeArm -13.415051 0.000000 31.886706
RightHand 11.292386 -0.000000 -21.951565
RightHandThumb1 -24.326973 -0.000000 -32.862282
LeftUpLeg 11.244247 10.573427 5.889650
LeftLeg 9.064387 -0.000000 -0.000000
LeftFoot -11.765313 1.367604 -10.449647
LeftToeBase 8.705505 -0.000000 -0.000000
RightUpLeg 14.633717 -10.212893 -12.484197
RightLeg 3.254803 -0.000000 -0.000000
RightFoot -11.565028 1.341633 19.229921
RightToeBase 14.266941 -0.000000 -0.000000
